<svg width="462" height="166" viewBox="0 0 462 166" fill="none" xmlns="http://www.w3.org/2000/svg">
<g clip-path="url(#clip0_109_474)">
<path d="M228.391 9.70591C233.159 4.9918 231.574 1.1311 224.869 1.1311H186.634C179.929 1.1311 170.562 5.01212 165.82 9.75332L125.364 50.2094C120.623 54.9506 116.742 53.3453 116.742 46.6399V13.3228C116.742 6.61736 111.256 1.1311 104.55 1.1311H85.5449C78.8395 1.1311 69.4722 5.01212 64.731 9.75332L54.5645 19.9198C49.8233 24.661 45.9423 23.0558 45.9423 16.3504V13.3295C45.9423 6.62413 40.456 1.13788 33.7506 1.13788H12.1849C5.48625 1.1311 0 6.61736 0 13.3228V128.493C0 135.199 3.88102 136.804 8.62222 132.063L60.2607 80.4244C65.002 75.6832 68.883 77.2884 68.883 83.9938V155.329C68.883 162.034 72.7843 163.66 77.5526 158.946L228.391 9.70591Z" fill="#FF0000"/>
<g style="mix-blend-mode:multiply" opacity="0.93">
<path d="M228.391 9.70591C233.159 4.9918 231.574 1.1311 224.869 1.1311H186.634C179.929 1.1311 170.562 5.01212 165.82 9.75332L125.364 50.2094C120.623 54.9506 116.742 53.3453 116.742 46.6399V13.3228C116.742 6.61736 111.256 1.1311 104.55 1.1311H85.5449C78.8395 1.1311 69.4722 5.01212 64.731 9.75332L54.5645 19.9198C49.8233 24.661 45.9423 23.0558 45.9423 16.3504V13.3295C45.9423 6.62413 40.456 1.13788 33.7506 1.13788H12.1849C5.48625 1.1311 0 6.61736 0 13.3228V128.493C0 135.199 3.88102 136.804 8.62222 132.063L60.2607 80.4244C65.002 75.6832 68.883 77.2884 68.883 83.9938V155.329C68.883 162.034 72.7843 163.66 77.5526 158.946L228.391 9.70591Z" fill="#FF0000"/>
</g>
<g style="mix-blend-mode:multiply" opacity="0.59">
<path d="M228.391 9.70591C233.159 4.9918 231.574 1.1311 224.869 1.1311H186.634C179.929 1.1311 170.562 5.01212 165.82 9.75332L125.364 50.2094C120.623 54.9506 116.742 53.3453 116.742 46.6399V13.3228C116.742 6.61736 111.256 1.1311 104.55 1.1311H85.5449C78.8395 1.1311 69.4722 5.01212 64.731 9.75332L54.5645 19.9198C49.8233 24.661 45.9423 23.0558 45.9423 16.3504V13.3295C45.9423 6.62413 40.456 1.13788 33.7506 1.13788H12.1849C5.48625 1.1311 0 6.61736 0 13.3228V128.493C0 135.199 3.88102 136.804 8.62222 132.063L60.2607 80.4244C65.002 75.6832 68.883 77.2884 68.883 83.9938V155.329C68.883 162.034 72.7843 163.66 77.5526 158.946L228.391 9.70591Z" fill="#FF0000"/>
<g style="mix-blend-mode:multiply" opacity="0.93">
<path d="M228.391 9.70591C233.159 4.9918 231.574 1.1311 224.869 1.1311H186.634C179.929 1.1311 170.562 5.01212 165.82 9.75332L125.364 50.2094C120.623 54.9506 116.742 53.3453 116.742 46.6399V13.3228C116.742 6.61736 111.256 1.1311 104.55 1.1311H85.5449C78.8395 1.1311 69.4722 5.01212 64.731 9.75332L54.5645 19.9198C49.8233 24.661 45.9423 23.0558 45.9423 16.3504V13.3295C45.9423 6.62413 40.456 1.13788 33.7506 1.13788H12.1849C5.48625 1.1311 0 6.61736 0 13.3228V128.493C0 135.199 3.88102 136.804 8.62222 132.063L60.2607 80.4244C65.002 75.6832 68.883 77.2884 68.883 83.9938V155.329C68.883 162.034 72.7843 163.66 77.5526 158.946L228.391 9.70591Z" fill="#FF0000"/>
</g>
</g>
<path d="M182.99 70.2172H190.8C198.555 70.2172 204.563 68.0024 208.843 63.5728C213.117 59.2989 215.258 53.7449 215.258 46.9176C215.115 40.0158 212.907 34.3466 208.634 29.9238C204.36 25.6499 198.86 23.4351 192.134 23.2793C187.285 23.2793 182.868 24.8913 178.886 28.1221C174.686 31.3529 171.862 36.3379 170.419 43.0908H147.729C148.888 31.0075 153.622 20.8207 161.939 12.5371C170.115 4.32804 179.875 0.149009 191.233 0C205.626 0.149009 217.053 4.89021 225.512 14.2236C233.613 23.3335 237.731 34.0825 237.88 46.4706C237.88 52.7425 236.762 58.7842 234.521 64.6091C231.906 70.434 227.239 75.6222 220.52 80.1738C227.388 84.6508 232.353 90.0287 235.415 96.3006C238.327 102.573 239.783 109.143 239.783 116.01C239.641 131.311 235.049 143.367 226.02 152.179C217.134 161.214 205.714 165.8 191.768 165.949C180.999 165.949 171.462 162.373 163.152 155.22C154.841 148.068 149.457 137.712 147.005 124.145H169.674C171.7 129.611 174.558 134.027 178.242 137.393C182.002 140.909 186.993 142.67 193.211 142.67C199.862 142.67 205.47 140.313 210.029 135.598C214.655 131.182 217.046 124.897 217.188 116.735C217.046 108.431 214.655 101.99 210.029 97.425C205.47 93.0089 199.686 90.8008 192.676 90.8008H182.997V70.2172H182.99Z" fill="white"/>
<path d="M459.03 9.70592C463.798 4.9918 462.213 1.1311 455.508 1.1311H417.273C410.568 1.1311 401.201 5.01212 396.46 9.75333L356.004 50.2094C351.262 54.9506 347.381 53.3453 347.381 46.6399V13.3228C347.381 6.61736 341.895 1.1311 335.19 1.1311H316.184C309.479 1.1311 300.112 5.01212 295.37 9.75333L285.204 19.9198C280.463 24.661 276.582 23.0558 276.582 16.3504V13.3296C276.582 6.62413 271.095 1.13788 264.39 1.13788H242.824C236.119 1.13788 230.633 6.62413 230.633 13.3296V128.5C230.633 135.206 234.514 136.811 239.255 132.07L290.893 80.4312C295.634 75.69 299.515 77.2952 299.515 84.0006V155.335C299.515 162.041 303.417 163.666 308.185 158.952L459.03 9.70592Z" fill="#B3DDF2"/>
<g style="mix-blend-mode:multiply" opacity="0.93">
<path d="M459.03 9.70592C463.798 4.9918 462.213 1.1311 455.508 1.1311H417.273C410.568 1.1311 401.201 5.01212 396.46 9.75333L356.004 50.2094C351.262 54.9506 347.381 53.3453 347.381 46.6399V13.3228C347.381 6.61736 341.895 1.1311 335.19 1.1311H316.184C309.479 1.1311 300.112 5.01212 295.37 9.75333L285.204 19.9198C280.463 24.661 276.582 23.0558 276.582 16.3504V13.3296C276.582 6.62413 271.095 1.13788 264.39 1.13788H242.824C236.119 1.13788 230.633 6.62413 230.633 13.3296V128.5C230.633 135.206 234.514 136.811 239.255 132.07L290.893 80.4312C295.634 75.69 299.515 77.2952 299.515 84.0006V155.335C299.515 162.041 303.417 163.666 308.185 158.952L459.03 9.70592Z" fill="#B3DDF2"/>
</g>
<g style="mix-blend-mode:multiply" opacity="0.59">
<path d="M459.03 9.70592C463.798 4.9918 462.213 1.1311 455.508 1.1311H417.273C410.568 1.1311 401.201 5.01212 396.46 9.75333L356.004 50.2094C351.262 54.9506 347.381 53.3453 347.381 46.6399V13.3228C347.381 6.61736 341.895 1.1311 335.19 1.1311H316.184C309.479 1.1311 300.112 5.01212 295.37 9.75333L285.204 19.9198C280.463 24.661 276.582 23.0558 276.582 16.3504V13.3296C276.582 6.62413 271.095 1.13788 264.39 1.13788H242.824C236.119 1.13788 230.633 6.62413 230.633 13.3296V128.5C230.633 135.206 234.514 136.811 239.255 132.07L290.893 80.4312C295.634 75.69 299.515 77.2952 299.515 84.0006V155.335C299.515 162.041 303.417 163.666 308.185 158.952L459.03 9.70592Z" fill="#B3DDF2"/>
<g style="mix-blend-mode:multiply" opacity="0.93">
<path d="M459.03 9.70592C463.798 4.9918 462.213 1.1311 455.508 1.1311H417.273C410.568 1.1311 401.201 5.01212 396.46 9.75333L356.004 50.2094C351.262 54.9506 347.381 53.3453 347.381 46.6399V13.3228C347.381 6.61736 341.895 1.1311 335.19 1.1311H316.184C309.479 1.1311 300.112 5.01212 295.37 9.75333L285.204 19.9198C280.463 24.661 276.582 23.0558 276.582 16.3504V13.3296C276.582 6.62413 271.095 1.13788 264.39 1.13788H242.824C236.119 1.13788 230.633 6.62413 230.633 13.3296V128.5C230.633 135.206 234.514 136.811 239.255 132.07L290.893 80.4312C295.634 75.69 299.515 77.2952 299.515 84.0006V155.335C299.515 162.041 303.417 163.666 308.185 158.952L459.03 9.70592Z" fill="#B3DDF2"/>
</g>
</g>
</g>
<defs>
<clipPath id="clip0_109_474">
<rect width="461.78" height="165.942" fill="white"/>
</clipPath>
</defs>
</svg>
